<svg id="Capa_1" enable-background="new 0 0 512 512" height="512" viewBox="0 0 512 512" width="512" xmlns="http://www.w3.org/2000/svg"><path d="m474.5 504.5h-437c-16.569 0-30-13.431-30-30v-300c0-16.569 13.431-30 30-30h437c16.569 0 30 13.431 30 30v300c0 16.569-13.431 30-30 30z" fill="#ff7043"/><path d="m474.5 144.5h-30c16.569 0 30 13.431 30 30v300c0 16.569-13.431 30-30 30h30c16.569 0 30-13.431 30-30v-300c0-16.569-13.431-30-30-30z" fill="#ff5722"/><path d="m37.5 119.5h218.5v323h-218.5z" fill="#fbf2df"/><path d="m256 119.5h218.5v323h-218.5z" fill="#f2e5ce"/><path d="m37.5 442.5h218.5v30h-218.5z" fill="#eddbb9"/><path d="m256 442.5h218.5v30h-218.5z" fill="#e0cfaf"/><path d="m446 395-190 47.5v-323l190-47.5z" fill="#fbf2df"/><path d="m141.807 37.764h60v311.026h-60z" fill="#80deea" transform="matrix(.936 .352 -.352 .936 78.904 -48.058)"/><path d="m30.337 183.55h311.026v30h-311.026z" fill="#4dd0e1" transform="matrix(.352 -.936 .936 .352 -65.358 302.747)"/><path d="m247.095 55.432-39.32-14.764 10.018-26.681c1.941-5.17 7.707-7.788 12.877-5.847l20.596 7.733c5.17 1.941 7.788 7.707 5.847 12.877z" fill="#ff7043"/><path d="m89.057 328.32-2.306 64.729c.525 8.904 11.356 12.971 17.611 6.613l40.866-50.251z" fill="#78909c"/><path d="m117.143 338.866-30.392 54.183c.526 8.904 11.356 12.97 17.611 6.613l40.866-50.251z" fill="#607d8b"/><path d="m124.763 184.67h60v108h-60z" fill="#78909c" transform="matrix(.936 .352 -.352 .936 93.772 -39.17)"/><path d="m114.806 228.943h108v30h-108z" fill="#607d8b" transform="matrix(.352 -.936 .936 .352 -118.906 316.227)"/><path d="m482 137.759v-18.253c0-4.142-3.357-7.5-7.5-7.5h-21v-40c0-2.31-1.064-4.49-2.885-5.912-1.82-1.422-4.193-1.924-6.435-1.364l-189.103 47.275h-12.697l19.198-51.129c1.456-3.877-.508-8.202-4.385-9.658l-.441-.166 7.382-19.66c1.643-4.376 1.483-9.13-.449-13.386s-5.406-7.505-9.783-9.148l-20.596-7.733c-4.376-1.643-9.13-1.484-13.386.449s-7.505 5.407-9.148 9.783l-7.382 19.659-2.367-.889c-1.862-.699-3.925-.629-5.737.192-1.812.822-3.222 2.331-3.921 4.193l-29.097 77.492h-65.576c-4.142 0-7.5 3.358-7.5 7.5s3.358 7.5 7.5 7.5h59.944l-17.997 47.931c0 .001-.001.002-.001.003-5.42 14.434-49.498 131.827-56.603 150.747-.3.801-.468 1.656-.48 2.539l-2.3 64.558c-.573 15.42 20.835 24.01 30.925 11.612l40.866-50.25c.003-.003.005-.007.008-.01.508-.629.909-1.326 1.195-2.086l84.5-225.044h11.751v307.996h-203.5v-307.995h19.385c4.142 0 7.5-3.358 7.5-7.5s-3.358-7.5-7.5-7.5h-26.885c-4.142 0-7.5 3.358-7.5 7.5v18.253c-17.096 3.484-30 18.636-30 36.746v299.996c0 20.678 16.822 37.5 37.5 37.5h437c20.678 0 37.5-16.822 37.5-37.499v-299.996c0-18.11-12.904-33.262-30-36.746zm-257.185-121.128c.484-1.291 1.929-1.946 3.219-1.461l20.596 7.733c.843.316 1.238.955 1.397 1.307.16.352.381 1.069.064 1.913l-7.382 19.659-25.277-9.491zm-22.043 30.176 2.345.88c.007.003.015.006.022.009l39.32 14.763c.001 0 .001.001.002.001l.439.165c-7.006 18.659-40.353 107.472-47.454 126.383l-42.128-15.818c8.31-22.132 36.722-97.799 47.454-126.383zm-52.727 140.426 42.128 15.818-32.691 87.063-42.128-15.818c2.894-7.707 28.419-75.686 32.691-87.063zm-37.964 101.106 42.128 15.818-13.367 35.599-42.128-15.818zm-13.251 106.24c-1.626 1.422-4.276.45-4.568-1.715l1.919-53.855 36.65 13.761zm339.67-5.433-175 43.749v-307.534l175-43.749zm-175 60.855h203.5v15h-203.5zm233.5 24.5c0 12.407-10.094 22.5-22.5 22.5h-437c-12.407 0-22.5-10.093-22.5-22.5v-299.996c0-9.778 6.27-18.119 15-21.214v319.21c0 4.142 3.358 7.5 7.5 7.5h154.269c4.142 0 7.5-3.358 7.5-7.5s-3.358-7.5-7.5-7.5h-146.769v-15h203.5v15h-24.269c-4.142 0-7.5 3.358-7.5 7.5s3.358 7.5 7.5 7.5h250.269c4.143 0 7.5-3.358 7.5-7.5v-248.728c0-4.142-3.357-7.5-7.5-7.5s-7.5 3.358-7.5 7.5v211.228h-150.077l130.896-32.724c3.339-.834 5.681-3.834 5.681-7.276v-267.996h13.5v64.563c0 4.142 3.357 7.5 7.5 7.5s7.5-3.358 7.5-7.5v-38.278c8.73 3.095 15 11.436 15 21.214z"/><path d="m217.169 410.253c4.142 0 7.5-3.358 7.5-7.5s-3.358-7.5-7.5-7.5h-77.023c-4.142 0-7.5 3.358-7.5 7.5s3.358 7.5 7.5 7.5z"/></svg>