<svg height="512pt" viewBox="0 0 512 512" width="512pt" xmlns="http://www.w3.org/2000/svg"><path d="m504.40625 256.003906c0 137.1875-111.214844 248.398438-248.402344 248.398438s-248.402344-111.210938-248.402344-248.398438c0-137.191406 111.214844-248.402344 248.402344-248.402344s248.402344 111.210938 248.402344 248.402344zm0 0" fill="#f74866"/><path d="m256.003906 433.003906c-97.601562 0-177.003906-79.402344-177.003906-177.003906 0-97.597656 79.40625-177.003906 177.003906-177.003906s177.003906 79.40625 177.003906 177.003906c0 97.601562-79.402343 177.003906-177.003906 177.003906zm0 0" fill="#f2f2f2"/><path d="m256.003906 361.605469c-58.230468 0-105.605468-47.371094-105.605468-105.601563 0-58.234375 47.375-105.605468 105.605468-105.605468 58.230469 0 105.605469 47.371093 105.605469 105.601562s-47.371094 105.605469-105.605469 105.605469zm0 0" fill="#f74866"/><path d="m256.003906 293.636719c-20.753906 0-37.632812-16.882813-37.632812-37.636719 0-20.75 16.882812-37.632812 37.632812-37.632812s37.632813 16.882812 37.632813 37.632812c0 20.753906-16.882813 37.636719-37.632813 37.636719zm0 0" fill="#f2f2f2"/><path d="m173.039062 102.816406-85.921874-85.921875-15.761719 54.457031 85.921875 85.921876zm0 0" fill="#ffc627"/><path d="m157.277344 157.273438-85.921875-85.921876-54.457031 15.765626 85.921874 85.921874zm0 0" fill="#eaad18"/><path d="m446.722656 85.230469c-2.800781-3.125-7.601562-3.390625-10.730468-.589844-3.125 2.800781-3.390626 7.605469-.589844 10.734375 39.59375 44.1875 61.398437 101.234375 61.398437 160.625 0 64.320312-25.046875 124.789062-70.527343 170.269531-45.480469 45.484375-105.953126 70.53125-170.273438 70.53125s-124.789062-25.046875-170.269531-70.53125c-45.484375-45.480469-70.53125-105.949219-70.53125-170.269531 0-44.335938 12.042969-87.328125 34.90625-124.929688l47.339843 47.339844c1.445313 1.449219 3.386719 2.226563 5.375 2.226563.707032 0 1.414063-.097657 2.113282-.296875l50.144531-14.515625 15.722656 15.722656c-17.425781 19.917969-28.003906 45.972656-28.003906 74.457031 0 4.195313 3.402344 7.597656 7.601563 7.597656 4.195312 0 7.597656-3.402343 7.597656-7.597656 0-24.292968 8.890625-46.542968 23.574218-63.6875l37.550782 37.550782c-5.25 7.386718-8.351563 16.402343-8.351563 26.136718 0 24.941406 20.292969 45.234375 45.234375 45.234375s45.234375-20.292969 45.234375-45.234375c0-24.945312-20.292969-45.238281-45.234375-45.238281-9.734375 0-18.75 3.101563-26.136718 8.351563l-37.546876-37.546876c17.140626-14.6875 39.394532-23.574218 63.683594-23.574218 54.039063 0 98.007813 43.964844 98.007813 98.003906 0 54.042969-43.96875 98.007812-98.007813 98.007812-21.183594 0-41.363281-6.679687-58.355468-19.316406-16.433594-12.21875-28.882813-29.621094-35.058594-49.003906-1.273438-3.996094-5.546875-6.203125-9.546875-4.933594-4 1.273438-6.210938 5.550782-4.933594 9.550782 7.132813 22.386718 21.503906 42.480468 40.46875 56.585937 19.636719 14.601563 42.949219 22.316406 67.425781 22.316406 62.421875 0 113.207032-50.785156 113.207032-113.207031s-50.785157-113.203125-113.207032-113.203125c-28.480468 0-54.539062 10.574219-74.453125 28.003906l-15.726562-15.726562 14.515625-50.144531c.050781-.167969.074218-.339844.113281-.511719 23.351563-11.664063 49.324219-17.816407 75.546875-17.816407 93.414062 0 169.410156 75.992188 169.410156 169.398438s-75.996094 169.398438-169.410156 169.398438c-93.40625 0-169.398438-75.992188-169.398438-169.398438 0-19.933594 3.445313-39.464844 10.242188-58.050781 1.441406-3.941407-.585938-8.304688-4.527344-9.746094-3.9375-1.441406-8.304687.585937-9.746094 4.527344-7.414062 20.261719-11.171874 41.546875-11.171874 63.269531 0 101.789062 82.8125 184.601562 184.601562 184.601562 101.796875 0 184.609375-82.8125 184.609375-184.601562s-82.816406-184.601562-184.609375-184.601562c-29.042969 0-57.820312 6.914062-83.59375 20.039062l-41.328125-41.332031c37.589844-22.863281 80.574219-34.90625 124.921875-34.90625 58.929688 0 115.640625 21.507812 159.6875 60.558593 1.445312 1.285157 3.246094 1.914063 5.039062 1.914063 2.097657 0 4.1875-.863281 5.6875-2.558594 2.785157-3.140625 2.496094-7.941406-.644531-10.726562-46.828125-41.519531-107.117187-64.386719-169.769531-64.386719-48.382812 0-95.25 13.492188-135.960938 39.066406l-27.546874-27.542968c-1.898438-1.902344-4.664063-2.65625-7.265626-1.988282-2.605468.671875-4.660156 2.664063-5.40625 5.246094l-14.601562 50.433594-50.433594 14.601562c-2.582031.746094-4.578125 2.804688-5.246094 5.40625-.671874 2.601563.082032 5.367188 1.984376 7.269532l27.542968 27.539062c-25.574218 40.722656-39.066406 87.59375-39.066406 135.96875 0 68.378906 26.628906 132.667969 74.980469 181.019531 48.351562 48.351563 112.640625 74.980469 181.019531 74.980469 68.382812 0 132.671875-26.628906 181.023438-74.980469 48.347656-48.351562 74.976562-112.640625 74.976562-181.019531 0-63.140625-23.183594-123.789062-65.277344-170.769531zm-190.71875 140.734375c16.5625 0 30.035156 13.476562 30.035156 30.035156 0 16.5625-13.472656 30.035156-30.035156 30.035156s-30.035156-13.472656-30.035156-30.035156c0-5.527344 1.507812-10.707031 4.125-15.160156l20.535156 20.535156c1.484375 1.484375 3.429688 2.226562 5.375 2.226562 1.945313 0 3.890625-.742187 5.375-2.226562 2.96875-2.96875 2.96875-7.78125 0-10.746094l-20.539062-20.535156c4.457031-2.621094 9.636718-4.128906 15.164062-4.128906zm-165.160156-194.597656 73.648438 73.648437-10.9375 37.789063-73.652344-73.652344zm-21.6875 48.535156 73.648438 73.648437-37.785157 10.9375-73.652343-73.648437zm0 0"/></svg>